<svg width="23" height="19" viewBox="0 0 23 19" fill="none" xmlns="http://www.w3.org/2000/svg">
<path fill-rule="evenodd" clip-rule="evenodd" d="M17.0095 18.2719C18.114 18.2719 19.0095 17.3765 19.0095 16.2719H20.0095C21.114 16.2719 22.0095 15.3765 22.0095 14.2719V4.27188C22.0095 3.16731 21.114 2.27188 20.0095 2.27188H19.0095C19.0095 1.16731 18.114 0.271881 17.0095 0.271881H5.00946C3.90489 0.271881 3.00946 1.16731 3.00946 2.27188H2.00946C0.904891 2.27188 0.00946045 3.16731 0.00946045 4.27188V14.2719C0.00946045 15.3765 0.904891 16.2719 2.00946 16.2719H3.00946C3.00946 17.3765 3.90489 18.2719 5.00946 18.2719H17.0095ZM17.0095 2.27188V16.2719H5.00946V2.27188H17.0095ZM11.0095 9.41235V4.40336L15.5642 7.43983L14.4548 9.10393L13.0095 8.1404V11.7719C13.0095 13.2253 11.614 14.2719 10.0095 14.2719C8.40489 14.2719 7.00946 13.2253 7.00946 11.7719C7.00946 10.3185 8.40489 9.27188 10.0095 9.27188C10.3566 9.27188 10.6939 9.32086 11.0095 9.41235ZM2.00946 4.27188H3.00946V14.2719H2.00946V4.27188ZM19.0095 14.2719H20.0095V4.27188H19.0095V14.2719ZM11.0095 11.7719C11.0095 11.9753 10.614 12.2719 10.0095 12.2719C9.40489 12.2719 9.00946 11.9753 9.00946 11.7719C9.00946 11.5685 9.40489 11.2719 10.0095 11.2719C10.614 11.2719 11.0095 11.5685 11.0095 11.7719Z" fill="white"/>
</svg>
