<svg width="23" height="23" viewBox="0 0 23 23" fill="none" xmlns="http://www.w3.org/2000/svg">
<path fill-rule="evenodd" clip-rule="evenodd" d="M11.0095 22.2719C4.93433 22.2719 0.00946045 17.347 0.00946045 11.2719C0.00946045 5.19675 4.93433 0.271881 11.0095 0.271881C17.0846 0.271881 22.0095 5.19675 22.0095 11.2719C22.0095 17.347 17.0846 22.2719 11.0095 22.2719ZM11.0095 20.2719C15.98 20.2719 20.0095 16.2424 20.0095 11.2719C20.0095 6.30132 15.98 2.27188 11.0095 2.27188C6.0389 2.27188 2.00947 6.30132 2.00947 11.2719C2.00947 16.2424 6.0389 20.2719 11.0095 20.2719ZM15.92 14.7203L14.2841 13.5697C13.5388 14.6295 12.329 15.2719 11.0095 15.2719C9.68996 15.2719 8.48016 14.6295 7.73481 13.5697L6.0989 14.7203C7.21491 16.3071 9.03191 17.2719 11.0095 17.2719C12.987 17.2719 14.804 16.3071 15.92 14.7203ZM13.0095 10.2719V8.27188H15.0095V10.2719H13.0095ZM7.00946 8.27188V10.2719H9.00946V8.27188H7.00946Z" fill="white"/>
</svg>
