<svg width="23" height="23" viewBox="0 0 23 23" fill="none" xmlns="http://www.w3.org/2000/svg">
<path fill-rule="evenodd" clip-rule="evenodd" d="M22.0095 11.2719C22.0095 5.19675 17.0846 0.271881 11.0095 0.271881C4.93433 0.271881 0.00946045 5.19675 0.00946045 11.2719C0.00946045 17.347 4.93433 22.2719 11.0095 22.2719C17.0846 22.2719 22.0095 17.347 22.0095 11.2719ZM2.00947 11.2719C2.00947 7.48356 4.35006 4.24192 7.66401 2.91419C6.61503 4.93919 6.00946 7.94424 6.00946 11.2719C6.00946 14.5995 6.61503 17.6046 7.66402 19.6296C4.35006 18.3018 2.00947 15.0602 2.00947 11.2719ZM16.0095 11.2719C16.0095 14.5995 15.4039 17.6046 14.3549 19.6296C17.6689 18.3019 20.0095 15.0602 20.0095 11.2719C20.0095 7.48356 17.6689 4.24191 14.3549 2.91419C15.4039 4.93918 16.0095 7.94424 16.0095 11.2719ZM8.00946 11.2719C8.00946 6.25587 9.60306 2.27188 11.0095 2.27188C12.4159 2.27188 14.0095 6.25587 14.0095 11.2719C14.0095 16.2879 12.4159 20.2719 11.0095 20.2719C9.60306 20.2719 8.00946 16.2879 8.00946 11.2719Z" fill="white"/>
<path fill-rule="evenodd" clip-rule="evenodd" d="M20.0724 9.92252L21.9464 10.6212C21.2047 12.6106 16.3231 14.2719 11.0094 14.2719C5.28646 14.2719 0.733544 12.8421 0.0512695 10.5581L1.9676 9.98565C2.08369 10.3743 2.94971 10.9584 4.41769 11.4194C6.14394 11.9615 8.45104 12.2719 11.0094 12.2719C15.5568 12.2719 19.7254 10.8532 20.0724 9.92252Z" fill="white"/>
</svg>
