<svg width="17" height="17" viewBox="0 0 17 17" fill="none" xmlns="http://www.w3.org/2000/svg">
<path fill-rule="evenodd" clip-rule="evenodd" d="M0.687178 8.27152C0.687178 6.9256 1.59146 5.87163 3.08707 5.87163L5.54538 5.87163L5.52313 5.81105C5.50089 5.75092 5.43824 5.58579 5.37739 5.4254L5.37738 5.42539C5.32352 5.28343 5.27107 5.14518 5.24931 5.08679C5.09721 4.67853 4.98622 4.34958 4.89641 4.02382C4.76068 3.53144 4.687 3.08784 4.687 2.67177C4.687 1.49422 5.41347 0.762833 6.48829 0.449861C6.97307 0.308701 7.39504 0.271807 7.88686 0.27188L8.27044 0.27188L8.51061 0.570975C8.78191 0.908836 9.31477 1.51774 9.92911 2.21974L9.92913 2.21976L9.92916 2.2198C11.0625 3.51487 12.4731 5.12679 13.0303 5.93835C13.1749 5.8954 13.3281 5.87235 13.4866 5.87235L15.0865 5.87235C15.9701 5.87235 16.6865 6.58866 16.6865 7.47227L16.6865 14.672C16.6865 15.5556 15.9701 16.2719 15.0865 16.2719L13.4866 16.2719C12.9369 16.2719 12.452 15.9947 12.164 15.5725C11.9213 15.7294 11.6505 15.8604 11.3562 15.9657C10.6824 16.2068 10.0141 16.2808 9.45926 16.2707L3.88703 16.2712C1.68302 16.2712 0.687177 13.0262 0.687178 8.27152ZM10.8172 14.4593C11.5251 14.206 11.8867 13.7931 11.8867 13.0713L11.8867 7.47227L11.8867 7.47156C11.8867 7.27941 11.8511 7.10926 11.7733 6.92757C11.6335 6.6012 10.3652 5.15419 9.16308 3.78268L9.16306 3.78266C8.54263 3.07482 7.93983 2.38708 7.5189 1.88391C7.31777 1.899 7.12819 1.92991 6.93559 1.98599C6.47718 2.11947 6.28693 2.31101 6.28693 2.67177C6.28693 2.92503 6.33818 3.2336 6.4388 3.59862C6.514 3.87138 6.61139 4.16 6.74857 4.52822C6.76804 4.58048 6.81662 4.70853 6.86828 4.84468L6.86839 4.84497L6.86914 4.84694C6.93184 5.01221 6.99886 5.18887 7.02373 5.2561C7.12775 5.53738 7.19628 5.74449 7.24316 5.93268C7.44245 6.73267 7.24252 7.47156 6.28693 7.47156L3.08707 7.47156C2.53412 7.47156 2.28711 7.75946 2.28711 8.27152C2.28711 12.1039 3.07497 14.6712 3.88704 14.6712L9.48678 14.6712L9.51633 14.6717C9.86647 14.678 10.3582 14.6235 10.8172 14.4593ZM15.0865 14.672L15.0865 7.47227L13.4866 7.47227L13.4866 14.672L15.0865 14.672Z" fill="#898F97"/>
</svg>
