<svg width="157" height="72" viewBox="0 0 157 72" fill="none" xmlns="http://www.w3.org/2000/svg">
<g id="LOGO">
<g id="Group 2">
<path id="Rectangle" d="M11.1421 50.1421C3.33166 42.3317 3.33165 29.6684 11.1421 21.8579L21.8579 11.1421C29.6683 3.33165 42.3317 3.33164 50.1421 11.1421L60.8579 21.8579C68.6684 29.6683 68.6684 42.3316 60.8579 50.1421L50.1422 60.8579C42.3317 68.6683 29.6684 68.6684 21.8579 60.8579L11.1421 50.1421Z" fill="url(#paint0_linear_148_96)"/>
<path id="Rectangle_2" opacity="0.25" d="M12 32C12 20.9543 20.9543 12 32 12H47C58.0457 12 67 20.9543 67 32V47C67 58.0457 58.0457 67 47 67H32C20.9543 67 12 58.0457 12 47V32Z" fill="#FF334B"/>
<path id="Rectangle_3" opacity="0.25" d="M5 25C5 13.9543 13.9543 5 25 5H40C51.0457 5 60 13.9543 60 25V40C60 51.0457 51.0457 60 40 60H25C13.9543 60 5 51.0457 5 40V25Z" fill="#3369FF"/>
<g id="Group 2_2">
<g id="Group">
<g id="Group_2">
<path id="Vector" d="M48.2079 33.0621C47.7587 32.9437 47.2969 33.2058 47.1765 33.6475L45.8147 38.6442C44.3741 43.9301 38.828 47.0782 33.4514 45.6618C28.0749 44.2454 24.8729 38.7926 26.3135 33.5067L27.6753 28.51C27.7957 28.0684 27.529 27.6144 27.0799 27.4961C26.6306 27.3777 26.1689 27.6398 26.0485 28.0815L24.6867 33.0782C23.0791 38.9772 26.4269 45.0535 32.21 47.018L31.0787 51.1691L26.8714 50.0608C26.4223 49.9425 25.9605 50.2045 25.8401 50.6462C25.7197 51.0879 25.9863 51.5418 26.4355 51.6602L36.4767 54.3054C36.9259 54.4237 37.3877 54.1617 37.5081 53.72C37.6285 53.2783 37.3618 52.8244 36.9126 52.706L32.7054 51.5977L33.8368 47.4465C39.8442 48.5881 45.8337 44.9715 47.4414 39.0726L48.8032 34.0759C48.9237 33.6343 48.657 33.1804 48.2079 33.0621Z" fill="white"/>
</g>
</g>
<g id="Group_3">
<g id="Group_4">
<path id="Vector_2" d="M41.2819 19.0621L40.1978 18.7765C36.4794 17.7969 32.6438 19.9742 31.6474 23.6299L28.6334 34.6891C27.6371 38.3448 29.8516 42.1159 33.57 43.0955L34.654 43.3811C38.3724 44.3606 42.2081 42.1834 43.2044 38.5276L46.2185 27.4685C47.2148 23.8127 45.0003 20.0416 41.2819 19.0621ZM44.026 29.1157L41.0775 28.339C40.6283 28.2206 40.1666 28.4827 40.0462 28.9244C39.9258 29.3661 40.1924 29.82 40.6416 29.9383L43.5901 30.7151L42.9835 32.9411L40.035 32.1643C39.5857 32.046 39.124 32.308 39.0036 32.7497C38.8833 33.1914 39.1498 33.6454 39.5991 33.7637L42.5476 34.5405L41.9409 36.7666L38.9924 35.9898C38.5431 35.8715 38.0814 36.1335 37.9611 36.5752C37.8407 37.0169 38.1072 37.4708 38.5565 37.5892L41.4977 38.364C40.6339 40.977 37.8203 42.501 35.09 41.7818L34.0059 41.4962C31.2756 40.7769 29.614 38.074 30.1948 35.3864L33.136 36.1612C33.5853 36.2796 34.047 36.0175 34.1674 35.5758C34.2877 35.1341 34.0212 34.6802 33.5719 34.5619L30.6234 33.7851L31.2301 31.559L34.1786 32.3358C34.6279 32.4541 35.0896 32.192 35.2099 31.7503C35.3303 31.3086 35.0638 30.8547 34.6145 30.7364L31.666 29.9596L32.2727 27.7336L35.2212 28.5104C35.6704 28.6287 36.1321 28.3667 36.2525 27.925C36.3729 27.4833 36.1063 27.0294 35.6571 26.911L32.7086 26.1343L33.2743 24.0585C33.8176 22.065 35.4737 20.6509 37.4098 20.2889L36.7936 22.5498C36.6732 22.9915 36.9398 23.4454 37.389 23.5638C37.8382 23.6821 38.3 23.42 38.4204 22.9783L39.1626 20.2549C39.3623 20.2839 41.2389 20.7783 41.4267 20.8514L40.6845 23.5748C40.5641 24.0165 40.8306 24.4704 41.2799 24.5888C41.729 24.7071 42.1909 24.445 42.3112 24.0033L42.9274 21.7424C44.42 23.0077 45.1351 25.0463 44.5918 27.0399L44.026 29.1157V29.1157Z" fill="white"/>
</g>
</g>
</g>
</g>
<g id="pcast">
<path d="M89 30.8636H92.4553L93.124 32.2847C94.5173 31.1887 95.9012 30.6407 97.2759 30.6407C99.0779 30.6407 100.406 31.3094 101.261 32.647C102.134 33.9845 102.57 35.8886 102.57 38.3593C102.57 40.9229 102.171 42.8456 101.372 44.1274C100.592 45.3906 99.2265 46.0222 97.2759 46.0222C96.57 46.0222 95.8455 45.9386 95.1025 45.7714C94.378 45.6042 93.7185 45.3627 93.124 45.0469V52.4312H89V30.8636ZM95.9384 42.6227C96.7 42.6227 97.3038 42.3161 97.7496 41.7031C98.2141 41.0715 98.4463 39.9569 98.4463 38.3593C98.4463 36.7617 98.2233 35.6285 97.7775 34.9598C97.3317 34.291 96.7186 33.9566 95.9384 33.9566C95.0096 33.9566 94.0714 34.2353 93.124 34.7926V41.8982C93.477 42.1211 93.9043 42.2976 94.4058 42.4276C94.926 42.5576 95.4368 42.6227 95.9384 42.6227Z" fill="white"/>
<path d="M111.124 45.9943C109.136 45.9943 107.594 45.4277 106.498 44.2946C105.402 43.1614 104.854 41.2015 104.854 38.415C104.854 36.4273 105.096 34.8669 105.579 33.7337C106.062 32.6005 106.768 31.8017 107.696 31.3373C108.625 30.8729 109.805 30.6407 111.235 30.6407C113.037 30.6407 114.774 30.8729 116.446 31.3373V33.7058H112.517C111.625 33.7058 110.929 33.8359 110.427 34.0959C109.926 34.356 109.554 34.8204 109.313 35.4892C109.09 36.158 108.978 37.124 108.978 38.3872C108.978 39.6318 109.09 40.5792 109.313 41.2294C109.554 41.861 109.926 42.2976 110.427 42.5391C110.929 42.762 111.644 42.8734 112.573 42.8734H116.669V45.2141C115.963 45.437 115.099 45.6228 114.077 45.7714C113.056 45.92 112.071 45.9943 111.124 45.9943Z" fill="white"/>
<path d="M122.137 45.9943C120.985 45.9943 120.056 45.66 119.351 44.9912C118.663 44.3039 118.32 43.375 118.32 42.2047V40.8672C118.32 39.6783 118.728 38.7308 119.546 38.0249C120.382 37.319 121.617 36.9661 123.252 36.9661H127.069V35.935C127.069 35.4335 126.986 35.0434 126.818 34.7647C126.651 34.4675 126.335 34.2538 125.871 34.1238C125.407 33.9752 124.719 33.9009 123.809 33.9009H119.323V31.5045C121.162 30.9472 123.159 30.6685 125.314 30.6685C127.283 30.6685 128.75 31.0401 129.716 31.7831C130.701 32.5262 131.193 33.8173 131.193 35.6564V45.8271H127.933L127.264 44.2388C127.06 44.4432 126.698 44.6847 126.177 44.9633C125.657 45.242 125.035 45.4835 124.31 45.6878C123.605 45.8922 122.88 45.9943 122.137 45.9943ZM124.283 43.1242C124.71 43.1242 125.239 43.0313 125.871 42.8456C126.503 42.6412 126.902 42.4926 127.069 42.3997V38.9166L124.561 39.0838C123.149 39.1953 122.444 39.8083 122.444 40.9229V41.5359C122.444 42.5948 123.057 43.1242 124.283 43.1242Z" fill="white"/>
<path d="M139.714 45.9943C138.693 45.9943 137.615 45.9386 136.482 45.8271C135.367 45.6971 134.513 45.5299 133.919 45.3256V42.9013H140.55C141.163 42.9013 141.6 42.8177 141.86 42.6505C142.12 42.4833 142.25 42.1582 142.25 41.6752V41.2015C142.25 40.8114 142.12 40.5235 141.86 40.3377C141.619 40.1334 141.182 40.0312 140.55 40.0312H138.21C136.816 40.0312 135.711 39.7154 134.894 39.0838C134.076 38.4336 133.668 37.3933 133.668 35.9629V35.0991C133.668 33.613 134.114 32.5169 135.005 31.811C135.915 31.0865 137.476 30.7243 139.687 30.7243C140.597 30.7243 141.591 30.7986 142.668 30.9472C143.746 31.0772 144.563 31.2351 145.12 31.4209V33.8452H138.851C138.275 33.8452 137.857 33.938 137.597 34.1238C137.337 34.3096 137.207 34.6347 137.207 35.0991V35.5449C137.207 36.0094 137.346 36.3252 137.625 36.4923C137.903 36.641 138.368 36.7153 139.018 36.7153H141.414C142.9 36.7153 143.996 37.0589 144.702 37.7463C145.427 38.415 145.789 39.381 145.789 40.6442V41.9818C145.789 43.4493 145.287 44.4896 144.284 45.1027C143.281 45.6971 141.758 45.9943 139.714 45.9943Z" fill="white"/>
<path d="M154.034 45.8271C152.863 45.8271 151.925 45.66 151.219 45.3256C150.514 44.9912 150.003 44.4339 149.687 43.6537C149.371 42.8734 149.232 41.8239 149.269 40.5049L149.408 34.1795H147.068V31.5324L149.548 30.8636L150.105 26.6838H153.365V30.8636H156.876V34.1795H153.365V40.4771C153.365 41.2201 153.495 41.7403 153.755 42.0375C154.015 42.3347 154.377 42.5205 154.842 42.5948L156.737 42.762V45.8271H154.034Z" fill="white"/>
</g>
</g>
<defs>
<linearGradient id="paint0_linear_148_96" x1="35.9535" y1="-2.95342" x2="35.9535" y2="75.0466" gradientUnits="userSpaceOnUse">
<stop stop-color="#FF334B"/>
<stop offset="0.46875" stop-color="#C600F9"/>
<stop offset="1" stop-color="#3369FF"/>
</linearGradient>
</defs>
</svg>
