<svg width="151" height="151" viewBox="0 0 151 151" fill="none" xmlns="http://www.w3.org/2000/svg">
<g filter="url(#filter0_d_108_1563)">
<circle cx="75.5" cy="70.5" r="25.5" fill="#09121C"/>
</g>
<path fill-rule="evenodd" clip-rule="evenodd" d="M75.5 96C61.4167 96 50 84.5833 50 70.5C50 56.4167 61.4167 45 75.5 45C89.5833 45 101 56.4167 101 70.5C101 84.5833 89.5833 96 75.5 96Z" fill="#FF334B"/>
<path fill-rule="evenodd" clip-rule="evenodd" d="M69 62C69 60.8954 69.8954 60 71 60C72.1046 60 73 60.8954 73 62V79C73 80.1046 72.1046 81 71 81C69.8954 81 69 80.1046 69 79V62Z" fill="white"/>
<path fill-rule="evenodd" clip-rule="evenodd" d="M78 62C78 60.8954 78.8954 60 80 60C81.1046 60 82 60.8954 82 62V79C82 80.1046 81.1046 81 80 81C78.8954 81 78 80.1046 78 79V62Z" fill="white"/>
<defs>
<filter id="filter0_d_108_1563" x="0" y="0" width="151" height="151" filterUnits="userSpaceOnUse" color-interpolation-filters="sRGB">
<feFlood flood-opacity="0" result="BackgroundImageFix"/>
<feColorMatrix in="SourceAlpha" type="matrix" values="0 0 0 0 0 0 0 0 0 0 0 0 0 0 0 0 0 0 127 0" result="hardAlpha"/>
<feOffset dy="5"/>
<feGaussianBlur stdDeviation="25"/>
<feColorMatrix type="matrix" values="0 0 0 0 1 0 0 0 0 0.2 0 0 0 0 0.296 0 0 0 0.7 0"/>
<feBlend mode="normal" in2="BackgroundImageFix" result="effect1_dropShadow_108_1563"/>
<feBlend mode="normal" in="SourceGraphic" in2="effect1_dropShadow_108_1563" result="shape"/>
</filter>
</defs>
</svg>
