<svg width="14" height="14" viewBox="0 0 14 14" fill="none" xmlns="http://www.w3.org/2000/svg">
<path id="icon" fill-rule="evenodd" clip-rule="evenodd" d="M4.33337 5.00004C4.33337 2.42271 6.42271 0.333374 9.00004 0.333374C11.5774 0.333374 13.6667 2.42271 13.6667 5.00004C13.6667 7.57737 11.5774 9.66671 9.00004 9.66671H7.66671V11H6.33337V12.3334H5.00004V13.6667H0.333374V10.0572L4.43204 5.95856C4.36668 5.64569 4.33337 5.32491 4.33337 5.00004ZM6.33337 8.33337H9.00004C10.841 8.33337 12.3334 6.84099 12.3334 5.00004C12.3334 3.15909 10.841 1.66671 9.00004 1.66671C7.15909 1.66671 5.66671 3.15909 5.66671 5.00004C5.66671 5.33246 5.71517 5.65763 5.80943 5.96862L5.9253 6.35092L1.66671 10.6095V12.3334H3.66671V11H5.00004V9.66671H6.33337V8.33337ZM7.66671 5.00004C7.66671 5.73642 8.26366 6.33337 9.00004 6.33337C9.73642 6.33337 10.3334 5.73642 10.3334 5.00004C10.3334 4.26366 9.73642 3.66671 9.00004 3.66671C8.26366 3.66671 7.66671 4.26366 7.66671 5.00004Z" fill="#898F97"/>
</svg>
