<svg width="23" height="23" viewBox="0 0 23 23" fill="none" xmlns="http://www.w3.org/2000/svg">
<path fill-rule="evenodd" clip-rule="evenodd" d="M12.2817 0.580141L21.138 5.5003C22.3 6.14584 22.3 7.59792 21.138 8.24347L19.6468 9.07188L21.138 9.9003C22.3 10.5458 22.3 11.9979 21.138 12.6435L19.6468 13.4719L21.138 14.3003C22.3 14.9458 22.3 16.3979 21.138 17.0435L12.2817 21.9636C11.5419 22.3746 10.4771 22.3746 9.73723 21.9636L0.880952 17.0435C-0.281037 16.3979 -0.281037 14.9458 0.880952 14.3003L2.3721 13.4719L0.880952 12.6435C-0.281037 11.9979 -0.281037 10.5458 0.880952 9.9003L2.3721 9.07188L0.880952 8.24347C-0.281037 7.59792 -0.281037 6.14584 0.880952 5.5003L9.73723 0.580141C10.4771 0.169128 11.5419 0.169128 12.2817 0.580141ZM12.2817 13.1636L17.3818 10.3302L19.0767 11.2719L17.3818 12.2135L15.1167 13.4719L11.2133 15.6405C11.1379 15.6823 10.881 15.6823 10.8056 15.6405L6.90218 13.4719L4.63714 12.2135L2.94218 11.2719L4.63714 10.3302L9.73723 13.1636C10.4771 13.5746 11.5419 13.5746 12.2817 13.1636ZM4.63714 14.7302L2.94218 15.6719L10.8056 20.0405C10.881 20.0823 11.1379 20.0823 11.2133 20.0405L19.0767 15.6719L17.3818 14.7302L12.2817 17.5636C11.5419 17.9746 10.4771 17.9746 9.73723 17.5636L4.63714 14.7302ZM10.8056 2.50329C10.881 2.46141 11.1379 2.46141 11.2133 2.50329L19.0767 6.87188L11.2133 11.2405C11.1379 11.2824 10.881 11.2824 10.8056 11.2405L2.94217 6.87188L10.8056 2.50329Z" fill="white"/>
</svg>
