<svg width="17" height="16" viewBox="0 0 17 16" fill="none" xmlns="http://www.w3.org/2000/svg">
<path fill-rule="evenodd" clip-rule="evenodd" d="M0.687176 8.00036C0.687176 9.34628 1.59146 10.4003 3.08707 10.4003H5.54538L5.52313 10.4608C5.50089 10.521 5.43824 10.6861 5.37738 10.8465L5.37738 10.8465C5.32352 10.9885 5.27106 11.1267 5.24931 11.1851C5.09721 11.5934 4.98621 11.9223 4.89641 12.2481C4.76067 12.7404 4.687 13.184 4.687 13.6001C4.687 14.7777 5.41347 15.509 6.48829 15.822C6.97307 15.9632 7.39504 16.0001 7.88685 16H8.27044L8.51061 15.7009C8.78191 15.363 9.31477 14.7541 9.92911 14.0521L9.92913 14.0521L9.92916 14.0521C11.0625 12.757 12.4731 11.1451 13.0303 10.3335C13.1749 10.3765 13.3281 10.3995 13.4866 10.3995H15.0865C15.9701 10.3995 16.6865 9.68322 16.6865 8.79961V1.59993C16.6865 0.716312 15.9701 0 15.0865 0H13.4866C12.9369 0 12.452 0.277198 12.164 0.699429C11.9213 0.542465 11.6505 0.41146 11.3562 0.306158C10.6824 0.0650711 10.0141 -0.008955 9.45926 0.00118923L3.88703 0.000716209C1.68302 0.000716209 0.687176 3.24572 0.687176 8.00036ZM10.8172 1.81257C11.5251 2.06585 11.8867 2.47882 11.8867 3.20057V8.79961V8.80032C11.8867 8.99247 11.8511 9.16262 11.7733 9.34431C11.6335 9.67068 10.3652 11.1177 9.16308 12.4892L9.16306 12.4892C8.54263 13.1971 7.93983 13.8848 7.5189 14.388C7.31776 14.3729 7.12819 14.342 6.93559 14.2859C6.47717 14.1524 6.28693 13.9609 6.28693 13.6001C6.28693 13.3469 6.33818 13.0383 6.4388 12.6733C6.514 12.4005 6.61138 12.1119 6.74857 11.7437C6.76804 11.6914 6.81662 11.5634 6.86828 11.4272L6.86839 11.4269L6.86914 11.4249C6.93184 11.2597 6.99886 11.083 7.02373 11.0158C7.12775 10.7345 7.19628 10.5274 7.24316 10.3392C7.44244 9.53921 7.24252 8.80032 6.28693 8.80032H3.08707C2.53412 8.80032 2.2871 8.51242 2.28711 8.00036C2.28711 4.16793 3.07497 1.60064 3.88703 1.60064H9.48678L9.51633 1.60016C9.86647 1.59388 10.3582 1.64835 10.8172 1.81257ZM15.0865 1.59993V8.79961H13.4866V1.59993H15.0865Z" fill="#898F97"/>
</svg>
